<?xml version="1.0" encoding="UTF-8" standalone="no"?>
<!-- Created with Inkscape (http://www.inkscape.org/) -->

<svg
   width="323.0119mm"
   height="252.49861mm"
   viewBox="0 0 323.0119 252.49861"
   version="1.1"
   id="svg1"
   xml:space="preserve"
   xmlns="http://www.w3.org/2000/svg"
   xmlns:svg="http://www.w3.org/2000/svg"><defs
     id="defs1" /><g
     id="layer1"
     transform="translate(448.16356,-68.114172)"><g
       id="g38"
       transform="matrix(2.7226868,0,0,2.7226868,-556.79604,-558.13813)"><g
         id="g33"
         style="stroke:#ffffff;stroke-width:1.3;stroke-dasharray:none"
         transform="matrix(1.8213526,0,0,1.7913925,-90.74197,-509.19757)"><path
           style="fill:#ffffff;fill-opacity:1;stroke:#ffffff;stroke-width:0;stroke-linecap:round;stroke-linejoin:round;stroke-dasharray:none;stroke-opacity:1;paint-order:fill markers stroke"
           d="m 94.944871,440.2008 c -6.59581,-1.78049 -12.74072,0.80581 -22.777332,4.13964 1.176256,-3.04159 9.111128,-6.72093 11.927024,-11.00579 6.750954,-8.72387 21.411547,-19.95479 33.242047,-18.29429 6.73924,0.39756 9.89304,15.89708 -1.00303,18.37292 2.54234,-5.74761 -4.23606,-12.52469 -7.30335,-3.75123 -1.21371,3.47163 -0.28642,8.02015 2.64188,10.30207 6.18867,5.71532 20.92835,0.3728 25.05786,-5.10566 -3.23897,13.15751 -13.28152,16.87493 -20.38857,16.04121 -6.03723,-0.70822 -12.71673,-8.35582 -21.396529,-10.69887 z"
           id="path31" /><path
           style="fill:#ffffff;fill-opacity:1;stroke:#ffffff;stroke-width:0;stroke-linecap:round;stroke-linejoin:round;stroke-dasharray:none;stroke-opacity:1;paint-order:fill markers stroke"
           d="m 93.284095,448.19206 c -5.556955,-4.55097 -13.190023,-2.87893 -21.477904,0.0387 8.601323,-5.49617 19.801164,-6.20114 27.978319,-0.84548 6.1663,3.43138 11.90628,9.99453 19.69639,8.19042 7.08295,-1.03725 15.58333,-9.23202 17.37831,-17.16692 0.23288,18.10601 -7.55558,24.97864 -15.33862,25.84941 -14.78394,1.65403 -20.59751,-10.21957 -28.236495,-16.06613 z"
           id="path32" /><path
           style="fill:#ffffff;fill-opacity:1;stroke:#ffffff;stroke-width:0;stroke-linecap:round;stroke-linejoin:round;stroke-dasharray:none;stroke-opacity:1;paint-order:fill markers stroke"
           d="m 71.768582,450.7697 c 10.416787,-3.60925 18.509473,-3.42484 23.344824,4.51994 2.726824,3.83179 8.980064,6.53001 12.947914,6.90066 -7.48997,2.08548 -14.444082,-0.38321 -17.526669,-4.63257 -3.6046,-4.96895 -6.49826,-9.05796 -18.766069,-6.78803 z"
           id="path33" /></g><g
         id="g36"
         transform="matrix(1.8883306,0,0,1.8883306,126.43526,-439.43729)"><path
           style="fill:#0160ba;fill-opacity:1;stroke:#0160ba;stroke-width:0;stroke-linecap:round;stroke-linejoin:round;stroke-dasharray:none;stroke-opacity:1;paint-order:fill markers stroke"
           d="m -45.826857,384.59999 c 10.589775,-10.5121 18.144909,-28.08177 35.351491,-29.95524 16.1826146,-1.76197 17.7903981,15.62371 9.64971253,16.56603 0.25676311,-1.26104 0.0171707,-2.76496 -0.43139233,-3.72293 -0.4452595,-0.95091 -1.0682444,-1.83567 -1.923626,-2.43622 -0.4459819,-0.31311 -2.3444578,-1.32391 -4.2338597,-0.19677 -0.8244901,0.49185 -1.6971491,1.25278 -2.3188191,2.80275 -0.7765864,1.93622 -0.4394284,4.06184 0.4009887,5.88438 0.6303162,1.36691 1.4551229,2.53842 2.5319472,3.54547 3.54945,3.31945 10.3892202,5.76289 17.7555557,2.79638 2.033427,-0.81889 4.022429,-2.09237 6.004591,-4.43644 -3.269516,7.39664 -9.4181955,12.37196 -15.5373915,12.81431 -24.7256155,1.78738 -0.1823144,-25.73803 -47.2491975,-3.66172 z"
           id="path34" /><path
           style="fill:#1ba0d6;fill-opacity:1;stroke:#000000;stroke-width:0;stroke-linecap:round;stroke-linejoin:round;stroke-dasharray:none;stroke-opacity:0;paint-order:fill markers stroke"
           d="m -20.427364,387.38721 c -4.313108,-3.42914 -12.259307,-5.71691 -25.396829,0.85635 11.174377,-7.99244 19.074102,-7.61155 24.780196,-5.02116 9.090775,4.12694 13.11903,10.03839 20.25526391,9.99781 3.76130419,0.39474 14.01418009,-2.1575 17.74888009,-14.38188 0.318879,13.71637 -8.4218212,22.03461 -17.08482437,22.37286 -8.77312853,0.34255 -12.84773063,-7.89691 -20.30268663,-13.82398 z"
           id="path35" /><path
           style="fill:#0160ba;fill-opacity:1;stroke:#1ba0d6;stroke-width:0;stroke-linecap:round;stroke-linejoin:round;stroke-dasharray:none;stroke-opacity:1;paint-order:fill markers stroke"
           d="m -10.479192,401.62399 c -6.813749,-1.05127 -9.265711,-4.17083 -12.792737,-8.93918 -0.846376,-1.14425 -6.725761,-10.2932 -22.552145,-1.90948 0.202772,-0.0816 12.714404,-4.04303 17.28761,0.72934 3.744774,3.90786 6.177051,10.44204 18.057272,10.11932 z"
           id="path36" /></g></g></g></svg>
